<?xml version="1.0" encoding="UTF-8"?>
<!DOCTYPE svg PUBLIC "-//W3C//DTD SVG 1.1//EN" "http://www.w3.org/Graphics/SVG/1.1/DTD/svg11.dtd">
<!-- Creator: CorelDRAW 2019 (64-Bit) -->
<svg xmlns="http://www.w3.org/2000/svg" xml:space="preserve" width="206.25mm" height="66.5218mm" version="1.1" style="shape-rendering:geometricPrecision; text-rendering:geometricPrecision; image-rendering:optimizeQuality; fill-rule:evenodd; clip-rule:evenodd"
viewBox="0 0 206.1247 66.4815"
 xmlns:xlink="http://www.w3.org/1999/xlink"
 xmlns:xodm="http://www.corel.com/coreldraw/odm/2003">
 <defs>
  <style type="text/css">
   <![CDATA[
    .fil0 {fill:#E42526}
    .fil1 {fill:white}
   ]]>
  </style>
 </defs>
 <g id="Layer_x0020_1">
  <metadata id="CorelCorpID_0Corel-Layer"/>
  <g id="_839617904">
   <polygon class="fil0" points="0.0413,66.4155 206.1038,66.4155 206.1038,0 0.0413,0 "/>
   <path class="fil1" d="M149.049 66.4747c-0.9695,-0.4118 -3.6688,-1.7944 -4.0202,-4.5405l-5.009 4.5473 -11.666 -0.0068c-1.1543,-0.3179 -3.2572,-1.3567 -3.9168,-4.6866l-4.8229 4.6796 -10.183 0.0138 -4.3492 -14.068 -5.3794 14.0542 -9.749 0 1.8344 -4.7193c-3.9171,3.2512 -5.1331,4.3805 -5.4829,4.7331l-8.2866 -0.0068c-3.1125,-1.4348 -3.3398,-4.7595 -3.3398,-4.7595 -4.0393,3.2968 -5.2967,4.4013 -5.6687,4.7595l-7.2341 -0.007c-2.6594,-1.242 -3.5038,-4.6066 -3.5038,-4.6066 -4.0407,2.9722 -6.3902,4.6066 -6.3902,4.6066l-13.1303 0 7.7911 -20.0506 -6.9467 0 -7.5222 20.0506 -9.6887 0 8.8842 -24.7373 -6.3486 0 -9.4614 24.7373 -9.6874 0 11.1303 -29.424 -16.9021 0 0 -8.4903 29.6196 0 -1.6694 4.9798 16.0363 0 -1.814 5.1192 16.181 0 -7.4204 20.3498 7.5649 0 5.8959 -14.6385c0,0 2.2667,-5.7112 7.565,-5.7112l20.4265 0 -7.2564 20.4971 7.5648 0 11.6468 -30.596 9.2137 0 -7.112 20.2035 10.595 -10.1046 11.0479 0 -13.3149 13.0297 1.9584 7.6134 8.1834 -0.073 8.1611 -20.7159 9.2149 0 -7.3996 20.6429 10.5949 0 5.2758 -13.9087 -6.2041 0 2.432 -6.7342 5.8959 0 4.0806 -9.9532 9.5235 0 -3.6276 9.6598 5.6065 0 -2.2684 6.8816 -6.0595 0 -4.9885 13.9073 10.5949 0 4.9886 -13.3234c0,0 2.1234,-6.8736 8.3278,-7.0263l19.953 0 -7.4 20.3498 14.5106 0 0 7.4655 -19.3556 0c0,0 -4.5336,-0.5837 -5.2965,-4.6796l-4.7003 4.6796 -6.6371 0c0,0 -4.2459,-0.5837 -4.8435,-4.6796l-4.8436 4.6866 -11.3992 0zm32.5061 -7.1791l0 0 5.1317 -12.8785 -6.5129 0 -5.133 12.8785 6.5142 0zm-106.4633 0l0 0 5.1317 -12.8785 -6.4921 0 -5.1535 12.8785 6.5138 0z"/>
   <polygon class="fil1" points="133.8158,36.1131 136.5373,28.5013 145.7713,28.5013 143.0498,36.1131 "/>
   <path class="fil1" d="M195.3657 24.4122l-1.4846 0 0 -1.4031 1.6074 0c0.3095,0 0.8453,0.0536 0.8453,0.6914 0,0.6113 -0.4943,0.7118 -0.9681,0.7118zm1.5865 1.7424l0 0 -0.0413 -0.7453c-0.0207,-0.5716 -0.2879,-0.6776 -0.5563,-0.7781 0.289,-0.1526 0.6389,-0.3787 0.6389,-0.99 0,-0.8705 -0.7838,-1.1102 -1.5671,-1.1102l-2.1845 0 0 4.1275 0.6391 0 0 -1.7681 1.5454 0c0.7833,0 0.8662,0.3991 0.8662,0.738 0,0.153 0.0205,0.778 0.1033,1.0302l0.8042 0 0 -0.092c-0.2066,-0.0994 -0.2479,-0.1791 -0.2479,-0.4118z"/>
   <path class="fil1" d="M195.0766 28.062c-0.9282,0 -1.7931,-0.3596 -2.4527,-1.0179 -0.66,-0.6568 -1.0303,-1.5287 -1.0303,-2.4598 0,-0.9293 0.3703,-1.8012 1.0303,-2.4595 0.6596,-0.6582 1.5245,-1.0164 2.4527,-1.0164 0.9279,0 1.8137,0.3582 2.4528,1.0164 0.6597,0.6583 1.0303,1.5302 1.0303,2.4595 0,1.9214 -1.5661,3.4777 -3.4831,3.4777zm2.742 -6.203l0 0c-0.7426,-0.7312 -1.7122,-1.1292 -2.742,-1.1292 -2.1238,0 -3.8549,1.7283 -3.8549,3.8546 0,1.0316 0.3924,2.0012 1.1334,2.7323 0.7219,0.726 1.6914,1.131 2.7214,1.131 1.0299,0 1.9994,-0.4051 2.742,-1.131 0.7202,-0.7312 1.1126,-1.7008 1.1126,-2.7323 0,-1.0299 -0.3925,-2.0008 -1.1126,-2.7253z"/>
  </g>
 </g>
</svg>
